<svg xmlns="http://www.w3.org/2000/svg" width="1280" height="400" viewBox="0 0 1280 400">
  <rect width="1280" height="400" fill="#0a0a0f"/>
  <g stroke="#00ffa3" stroke-opacity="0.03" stroke-width="0.5">
    <line x1="0" y1="100" x2="1280" y2="100"/><line x1="0" y1="200" x2="1280" y2="200"/>
    <line x1="0" y1="300" x2="1280" y2="300"/><line x1="320" y1="0" x2="320" y2="400"/>
    <line x1="640" y1="0" x2="640" y2="400"/><line x1="960" y1="0" x2="960" y2="400"/>
  </g>
  <g transform="translate(160,80)">
    <path d="M 20,70 L 20,40 Q 20,5 50,5 Q 80,5 80,40 L 80,70" fill="none" stroke="#00ffa3" stroke-width="3.5" stroke-linecap="round"/>
    <rect x="-5" y="65" width="110" height="90" rx="12" fill="#0d1117" stroke="#00ffa3" stroke-width="2.5"/>
    <circle cx="50" cy="105" r="11" fill="#00ffa3" opacity="0.85"/>
    <rect x="47" y="105" width="6" height="22" rx="3" fill="#00ffa3" opacity="0.85"/>
  </g>
  <text x="640" y="155" text-anchor="middle" fill="#ffffff" font-family="system-ui,-apple-system,sans-serif" font-size="72" font-weight="800" letter-spacing="-2">NoDataChat</text>
  <rect x="480" y="168" width="320" height="2" rx="1" fill="#00ffa3" opacity="0.3"/>
  <text x="640" y="210" text-anchor="middle" fill="#00ffa3" font-family="monospace" font-size="22">Secrets that self-destruct.</text>
  <text x="640" y="245" text-anchor="middle" fill="#6e7681" font-family="system-ui,sans-serif" font-size="16">Zero-knowledge encryption · Burn after read · CLI + Library</text>
  <g transform="translate(365,270)">
    <rect x="0" y="0" width="550" height="95" rx="8" fill="#0d1117" stroke="#21262d" stroke-width="1.5"/>
    <rect x="0" y="0" width="550" height="28" rx="8" fill="#161b22"/>
    <rect x="0" y="18" width="550" height="10" fill="#161b22"/>
    <circle cx="18" cy="14" r="5" fill="#ff5f57"/><circle cx="36" cy="14" r="5" fill="#febc2e"/><circle cx="54" cy="14" r="5" fill="#28c840"/>
    <text x="18" y="52" fill="#6e7681" font-family="monospace" font-size="13">$</text>
    <text x="32" y="52" fill="#00ffa3" font-family="monospace" font-size="13" font-weight="600">npx nodata-send</text>
    <text x="200" y="52" fill="#ffa657" font-family="monospace" font-size="13">"DB_PASSWORD=s3cret"</text>
    <text x="18" y="74" fill="#8b949e" font-family="monospace" font-size="12">Secure link: <tspan fill="#00ffa3">nodatachat.com/burn/Ab7K#x9f2...</tspan></text>
  </g>
  <g transform="translate(1000,80)">
    <rect x="0" y="45" width="120" height="75" rx="6" fill="#0d1117" stroke="#00ffa3" stroke-width="2"/>
    <path d="M 120,60 L 150,60 Q 160,60 160,72 L 160,120 L 120,120" fill="#0d1117" stroke="#00ffa3" stroke-width="2"/>
    <path d="M 40,58 L 40,90 Q 40,108 60,115 Q 80,108 80,90 L 80,58 Z" fill="none" stroke="#00ffa3" stroke-width="1.5"/>
    <path d="M 48,88 L 56,98 L 72,78" fill="none" stroke="#00ffa3" stroke-width="2.5" stroke-linecap="round" stroke-linejoin="round"/>
    <circle cx="30" cy="125" r="13" fill="#0d1117" stroke="#00ffa3" stroke-width="2"/><circle cx="30" cy="125" r="3" fill="#00ffa3"/>
    <circle cx="138" cy="125" r="13" fill="#0d1117" stroke="#00ffa3" stroke-width="2"/><circle cx="138" cy="125" r="3" fill="#00ffa3"/>
  </g>
  <text x="640" y="388" text-anchor="middle" fill="#30363d" font-family="monospace" font-size="12">AES-256-GCM · RSA-OAEP-4096 · PBKDF2-SHA256 · Web Crypto API</text>
</svg>
