<svg xmlns="http://www.w3.org/2000/svg" viewBox="0 0 1120 300" width="1120" height="300" role="img" aria-label="NoData — Information Access Processor">
  <symbol id="mark" viewBox="0 0 100 100">
    <mask id="mk">
      <rect x="15" y="15" width="70" height="70" rx="17" fill="#fff"/>
      <g fill="#000">
        <rect x="40" y="13" width="2.2" height="5"/><rect x="49" y="13" width="2.2" height="5"/><rect x="58" y="13" width="2.2" height="5"/>
        <rect x="40" y="82" width="2.2" height="5"/><rect x="49" y="82" width="2.2" height="5"/><rect x="58" y="82" width="2.2" height="5"/>
        <rect x="13" y="40" width="5" height="2.2"/><rect x="13" y="49" width="5" height="2.2"/><rect x="13" y="58" width="5" height="2.2"/>
        <rect x="82" y="40" width="5" height="2.2"/><rect x="82" y="49" width="5" height="2.2"/><rect x="82" y="58" width="5" height="2.2"/>
      </g>
      <rect x="0" y="47.25" width="100" height="5.5" fill="#000"/>
      <circle cx="50" cy="50" r="18" fill="#000"/>
    </mask>
    <rect x="15" y="15" width="70" height="70" rx="17" fill="currentColor" mask="url(#mk)"/>
  </symbol>
  <rect width="1120" height="300" fill="#14110D"/>
  <use href="#mark" x="60" y="60" width="180" height="180" color="#C8A24B"/>
  <text x="285" y="172" font-family="Inter,system-ui,'Segoe UI',sans-serif" font-size="124" font-weight="800" letter-spacing="-4">
    <tspan fill="#F4EFE6">No</tspan><tspan fill="#C8A24B">Data</tspan>
  </text>
  <text x="290" y="222" font-family="ui-monospace,'SFMono-Regular',Menlo,monospace" font-size="22" letter-spacing="4" fill="#9a907e">INFORMATION ACCESS PROCESSOR</text>
</svg>
