<svg xmlns="http://www.w3.org/2000/svg" width="760" height="220" viewBox="0 0 760 220" role="img" aria-label="NoData — Information Access Processor">
  <defs>
    <linearGradient id="die" x1="0" y1="0" x2="1" y2="1">
      <stop offset="0" stop-color="#241d2e"/><stop offset="0.72" stop-color="#0c0a11"/><stop offset="1" stop-color="#070608"/>
    </linearGradient>
    <linearGradient id="pin" x1="0" y1="0" x2="0" y2="1">
      <stop offset="0" stop-color="#F4D478"/><stop offset="0.55" stop-color="#C99B43"/><stop offset="1" stop-color="#8B6914"/>
    </linearGradient>
    <radialGradient id="core" cx="0.5" cy="0.42" r="0.62">
      <stop offset="0" stop-color="#FFF8E2"/><stop offset="0.26" stop-color="#F6D87C"/><stop offset="0.56" stop-color="#E2BB5C"/><stop offset="0.86" stop-color="#9A7619"/><stop offset="1" stop-color="#3F2F08"/>
    </radialGradient>
    <radialGradient id="halo" cx="0.5" cy="0.5" r="0.5">
      <stop offset="0" stop-color="#F4D478" stop-opacity="0.5"/><stop offset="0.6" stop-color="#E2BB5C" stop-opacity="0.13"/><stop offset="1" stop-color="#E2BB5C" stop-opacity="0"/>
    </radialGradient>
    <linearGradient id="hexedge" x1="0" y1="0" x2="0" y2="1">
      <stop offset="0" stop-color="#FFF3CF" stop-opacity="0.9"/><stop offset="1" stop-color="#7A5B12" stop-opacity="0.6"/>
    </linearGradient>
    <filter id="soft" x="-40%" y="-40%" width="180%" height="180%"><feGaussianBlur stdDeviation="7"/></filter>
    <clipPath id="hexclip"><polygon points="128,72 178,100 178,156 128,184 78,156 78,100"/></clipPath>
  </defs>

  <!-- ── mark ── -->
  <g transform="translate(12,30) scale(0.625)">
    <circle cx="128" cy="128" r="78" fill="url(#halo)" filter="url(#soft)"/>
    <g fill="url(#pin)">
      <rect x="89" y="33" width="14" height="15" rx="4"/><rect x="121" y="33" width="14" height="15" rx="4"/><rect x="153" y="33" width="14" height="15" rx="4"/>
      <rect x="89" y="208" width="14" height="15" rx="4"/><rect x="121" y="208" width="14" height="15" rx="4"/><rect x="153" y="208" width="14" height="15" rx="4"/>
      <rect x="33" y="89" width="15" height="14" rx="4"/><rect x="33" y="121" width="15" height="14" rx="4"/><rect x="33" y="153" width="15" height="14" rx="4"/>
      <rect x="208" y="89" width="15" height="14" rx="4"/><rect x="208" y="121" width="15" height="14" rx="4"/><rect x="208" y="153" width="15" height="14" rx="4"/>
    </g>
    <rect x="44" y="44" width="168" height="168" rx="34" fill="url(#die)" stroke="#1F3DD2" stroke-opacity="0.35" stroke-width="1.5"/>
    <rect x="46.5" y="46.5" width="163" height="163" rx="31.5" fill="none" stroke="#ffffff" stroke-opacity="0.06" stroke-width="1"/>
    <g stroke="#7C9CE0" stroke-opacity="0.10" stroke-width="1">
      <line x1="44" y1="86" x2="212" y2="86"/><line x1="44" y1="170" x2="212" y2="170"/><line x1="86" y1="44" x2="86" y2="212"/><line x1="170" y1="44" x2="170" y2="212"/>
    </g>
    <g stroke="#E2BB5C" stroke-opacity="0.55" stroke-width="1.6" stroke-linecap="round" fill="none" stroke-dasharray="2 6">
      <path d="M159 105 L188 70"/><path d="M97 105 L68 70"/><path d="M159 151 L188 186"/><path d="M97 151 L68 186"/>
    </g>
    <g fill="#7C9CE0" fill-opacity="0.55">
      <rect x="184" y="66" width="8" height="8" rx="2"/><rect x="64" y="66" width="8" height="8" rx="2"/><rect x="184" y="182" width="8" height="8" rx="2"/><rect x="64" y="182" width="8" height="8" rx="2"/>
    </g>
    <polygon points="128,72 178,100 178,156 128,184 78,156 78,100" fill="url(#core)"/>
    <g clip-path="url(#hexclip)" fill="#43320A" fill-opacity="0.42">
      <path d="M104 150 L104 106 L112 106 L142 138 L142 106 L150 106 L150 150 L142 150 L112 118 L112 150 Z"/>
    </g>
    <polygon points="128,72 178,100 178,156 128,184 78,156 78,100" fill="none" stroke="url(#hexedge)" stroke-width="2"/>
    <path d="M82 102 L128 76 L174 102" fill="none" stroke="#FFF8E2" stroke-opacity="0.7" stroke-width="1.5" stroke-linecap="round"/>
  </g>

  <!-- ── wordmark ── -->
  <text x="196" y="118" font-family="'Frank Ruhl Libre', Georgia, 'Times New Roman', serif" font-size="78" font-weight="700" letter-spacing="-2" fill="#0E0E10">NoData</text>
  <text x="200" y="156" font-family="'Heebo', system-ui, sans-serif" font-size="15.5" font-weight="600" letter-spacing="5.5" fill="#8B6914">INFORMATION ACCESS PROCESSOR</text>
</svg>
